<?xml version="1.0" standalone="no"?><!DOCTYPE svg PUBLIC "-//W3C//DTD SVG 1.1//EN" "http://www.w3.org/Graphics/SVG/1.1/DTD/svg11.dtd"><svg t="1566132802612" class="icon" viewBox="0 0 1024 1024" version="1.1" xmlns="http://www.w3.org/2000/svg" p-id="4481" xmlns:xlink="http://www.w3.org/1999/xlink" width="200" height="200"><defs><style type="text/css"></style></defs><path d="M819.402 334h-21.584a293.554 293.554 0 0 0 3.084-42.5c0-160.991-130.509-291.5-291.5-291.5s-291.5 130.509-291.5 291.5c0 14.437 1.055 28.626 3.084 42.5h-21.584c-44.183 0-80 35.817-80 80v530c0 44.183 35.817 80 80 80h620c44.184 0 80-35.817 80-80V414c0-44.183-35.816-80-80-80z m-551.5-42.5c0-32.625 6.378-64.247 18.958-93.987 12.161-28.752 29.581-54.584 51.775-76.779 22.195-22.195 48.027-39.615 76.779-51.775C445.156 56.378 476.778 50 509.402 50s64.246 6.378 93.987 18.958c28.752 12.161 54.584 29.581 76.779 51.775 22.194 22.195 39.615 48.027 51.775 76.779 12.58 29.741 18.958 61.363 18.958 93.987a243.11 243.11 0 0 1-3.717 42.5H271.619a243.09 243.09 0 0 1-3.717-42.499z m581.5 652.5c0 16.542-13.458 30-30 30h-620c-16.542 0-30-13.458-30-30V414c0-16.542 13.458-30 30-30h620c16.542 0 30 13.458 30 30v530z" fill="#999999" p-id="4482"></path><path d="M509.402 579c-13.807 0-25 11.193-25 25v150c0 13.807 11.193 25 25 25s25-11.193 25-25V604c0-13.807-11.193-25-25-25z" fill="#999999" p-id="4483"></path></svg>